<mxfile host="app.diagrams.net" modified="2023-10-04T07:39:03.417Z" agent="Mozilla/5.0 (X11; Linux x86_64; rv:109.0) Gecko/20100101 Firefox/118.0" etag="EyaNI8M9Mmdsb_LqgJLd" version="22.0.0" type="device">
  <diagram name="Page-1" id="0pbR37fy-8RCgxXV9L8N">
    <mxGraphModel dx="1434" dy="942" grid="1" gridSize="10" guides="1" tooltips="1" connect="1" arrows="1" fold="1" page="1" pageScale="1" pageWidth="850" pageHeight="1100" math="0" shadow="0">
      <root>
        <mxCell id="0" />
        <mxCell id="1" parent="0" />
        <mxCell id="6AcQH9RrlWRlE2u4x-1C-1" value="Cloud App" style="ellipse;shape=cloud;whiteSpace=wrap;html=1;" parent="1" vertex="1">
          <mxGeometry x="259.27" width="210" height="170" as="geometry" />
        </mxCell>
        <mxCell id="6AcQH9RrlWRlE2u4x-1C-3" value="" style="image;points=[];aspect=fixed;html=1;align=center;shadow=0;dashed=0;image=img/lib/allied_telesis/computer_and_terminals/Personal_Computer.svg;" parent="1" vertex="1">
          <mxGeometry x="130" y="240" width="68.54" height="92.89" as="geometry" />
        </mxCell>
        <mxCell id="6AcQH9RrlWRlE2u4x-1C-4" value="" style="shape=actor;whiteSpace=wrap;html=1;" parent="1" vertex="1">
          <mxGeometry x="180" y="292.89" width="40" height="50" as="geometry" />
        </mxCell>
        <mxCell id="6AcQH9RrlWRlE2u4x-1C-5" value="" style="endArrow=classic;startArrow=classic;html=1;rounded=0;entryX=0.13;entryY=0.77;entryDx=0;entryDy=0;entryPerimeter=0;" parent="1" source="6AcQH9RrlWRlE2u4x-1C-3" target="6AcQH9RrlWRlE2u4x-1C-1" edge="1">
          <mxGeometry width="50" height="50" relative="1" as="geometry">
            <mxPoint x="199" y="243" as="sourcePoint" />
            <mxPoint x="300" y="110" as="targetPoint" />
          </mxGeometry>
        </mxCell>
        <mxCell id="6AcQH9RrlWRlE2u4x-1C-6" value="" style="image;points=[];aspect=fixed;html=1;align=center;shadow=0;dashed=0;image=img/lib/allied_telesis/computer_and_terminals/Personal_Computer.svg;" parent="1" vertex="1">
          <mxGeometry x="330" y="240" width="68.54" height="92.89" as="geometry" />
        </mxCell>
        <mxCell id="6AcQH9RrlWRlE2u4x-1C-7" value="" style="shape=actor;whiteSpace=wrap;html=1;" parent="1" vertex="1">
          <mxGeometry x="380" y="292.89" width="40" height="50" as="geometry" />
        </mxCell>
        <mxCell id="6AcQH9RrlWRlE2u4x-1C-8" value="" style="image;points=[];aspect=fixed;html=1;align=center;shadow=0;dashed=0;image=img/lib/allied_telesis/computer_and_terminals/Personal_Computer.svg;" parent="1" vertex="1">
          <mxGeometry x="520" y="240" width="68.54" height="92.89" as="geometry" />
        </mxCell>
        <mxCell id="6AcQH9RrlWRlE2u4x-1C-9" value="" style="shape=actor;whiteSpace=wrap;html=1;" parent="1" vertex="1">
          <mxGeometry x="570" y="292.89" width="40" height="50" as="geometry" />
        </mxCell>
        <mxCell id="6AcQH9RrlWRlE2u4x-1C-10" value="" style="endArrow=classic;startArrow=classic;html=1;rounded=0;entryX=0.55;entryY=0.95;entryDx=0;entryDy=0;entryPerimeter=0;exitX=0.642;exitY=0.022;exitDx=0;exitDy=0;exitPerimeter=0;" parent="1" source="6AcQH9RrlWRlE2u4x-1C-6" target="6AcQH9RrlWRlE2u4x-1C-1" edge="1">
          <mxGeometry width="50" height="50" relative="1" as="geometry">
            <mxPoint x="239" y="172" as="sourcePoint" />
            <mxPoint x="384" y="124" as="targetPoint" />
          </mxGeometry>
        </mxCell>
        <mxCell id="6AcQH9RrlWRlE2u4x-1C-11" value="" style="endArrow=classic;startArrow=classic;html=1;rounded=0;entryX=0.96;entryY=0.7;entryDx=0;entryDy=0;entryPerimeter=0;" parent="1" target="6AcQH9RrlWRlE2u4x-1C-1" edge="1">
          <mxGeometry width="50" height="50" relative="1" as="geometry">
            <mxPoint x="530" y="230" as="sourcePoint" />
            <mxPoint x="394" y="134" as="targetPoint" />
          </mxGeometry>
        </mxCell>
      </root>
    </mxGraphModel>
  </diagram>
</mxfile>
